<svg xmlns="http://www.w3.org/2000/svg" viewBox="0 0 427.42 320.4"><defs><style>.cls-1{fill:#fff;}</style></defs><title>资源 2</title><g id="图层_2" data-name="图层 2"><g id="阴"><path class="cls-1" d="M348.38,110.47a137.34,137.34,0,0,0-269.37,0A106.81,106.81,0,0,0,106.9,320.4H320.49a106.8,106.8,0,0,0,27.89-209.93Zm-191.6,59.06A14.74,14.74,0,0,1,142,154.79V140.41a14.74,14.74,0,0,1,29.48,0v14.38A14.74,14.74,0,0,1,156.78,169.53ZM255,212.59c-5.41,8.46-20.11,22.76-40.85,22.76s-35.37-14.41-40.65-22.93a14.74,14.74,0,0,1,24.95-15.69c.4.6,6.27,9.14,15.7,9.14,9.7,0,16.06-9.23,16.13-9.32a14.81,14.81,0,0,1,20.36-4.13A14.65,14.65,0,0,1,255,212.59Zm31.55-57.8a14.74,14.74,0,1,1-29.48,0V140.41a14.74,14.74,0,0,1,29.48,0Z"/></g></g></svg>